# xmcd CD database file
#
# Track frame offsets:
#	150
#	17718
#	32149
#	49456
#	60222
#	80236
#	89525
#	101872
#	116639
#	132034
#	146697
#	166027
#
# Disc length: 2419 seconds
#
# Revision: 0
# Processed by: cddbd v1.5.1PL0 Copyright (c) Steve Scherf et al.
# Submitted via: CDex 1.50beta9
#
DISCID=a209710c
DTITLE=Buck Ramsey - Hittin' The Trail
DYEAR=2003
DGENRE=Country
TTITLE0=The Trail To Mexico
TTITLE1=A Cowboy's Meditation
TTITLE2=The High-Toned Dance
TTITLE3=Danny Boy
TTITLE4=Good Bye, Old Paint
TTITLE5=Windy Bill
TTITLE6=Git Along Little Doggies
TTITLE7=The Last Wagon
TTITLE8=The Brazos River Song
TTITLE9=Christmas Waltz
TTITLE10=The Grand Roundup
TTITLE11=Alongside The Santa Fe Trail
EXTD=YEAR: 2003
EXTT0=
EXTT1=
EXTT2=
EXTT3=
EXTT4=
EXTT5=
EXTT6=
EXTT7=
EXTT8=
EXTT9=
EXTT10=
EXTT11=
PLAYORDER=
